HIERARCHY
ROOT Hips
{
  OFFSET 0 0 0
  CHANNELS 6 Xposition Yposition Zposition Zrotation Xrotation Yrotation
  JOINT Spine
  {
    OFFSET 0 10.1816 0.131521
    CHANNELS 3 Zrotation Xrotation Yrotation
    JOINT Spine1
    {
      OFFSET 0 10.0835 -1.0008
      CHANNELS 3 Zrotation Xrotation Yrotation
      JOINT Spine2
      {
        OFFSET 0 9.10001 -1.37342
        CHANNELS 3 Zrotation Xrotation Yrotation
        JOINT Neck
        {
          OFFSET 0 16.6717 -2.51617
          CHANNELS 3 Zrotation Xrotation Yrotation
          JOINT Head
          {
            OFFSET 0 9.61788 1.68501
            CHANNELS 3 Zrotation Xrotation Yrotation
            End Site
            {
              OFFSET 0 0 0
            }
          }
        }
        JOINT LeftShoulder
        {
          OFFSET 4.57045 10.946 -2.62799
          CHANNELS 3 Zrotation Xrotation Yrotation
          JOINT LeftArm
          {
            OFFSET 10.5924 -0.524583 -2.23212
            CHANNELS 3 Zrotation Xrotation Yrotation
            JOINT LeftForeArm
            {
              OFFSET 27.8415 -8.94286e-05 3.74589e-05
              CHANNELS 3 Zrotation Xrotation Yrotation
              JOINT LeftHand
              {
                OFFSET 28.3288 -1.74407e-05 3.78045e-05
                CHANNELS 3 Zrotation Xrotation Yrotation
                End Site
                {
                  OFFSET 0 0 0
                }
              }
            }
          }
        }
        JOINT RightShoulder
        {
          OFFSET -4.56997 10.9462 -2.62802
          CHANNELS 3 Zrotation Xrotation Yrotation
          JOINT RightArm
          {
            OFFSET -10.5928 -0.524798 -2.2321
            CHANNELS 3 Zrotation Xrotation Yrotation
            JOINT RightForeArm
            {
              OFFSET -27.8415 -3.30792e-05 1.16763e-05
              CHANNELS 3 Zrotation Xrotation Yrotation
              JOINT RightHand
              {
                OFFSET -28.3288 0 5.5816e-05
                CHANNELS 3 Zrotation Xrotation Yrotation
                End Site
                {
                  OFFSET 0 0 0
                }
              }
            }
          }
        }
      }
    }
  }
  JOINT LeftUpLeg
  {
    OFFSET 8.20778 -6.75171 -1.59956
    CHANNELS 3 Zrotation Xrotation Yrotation
    JOINT LeftLeg
    {
      OFFSET 0 -44.3705 0.284643
      CHANNELS 3 Zrotation Xrotation Yrotation
      JOINT LeftFoot
      {
        OFFSET 0 -44.4279 -2.98219
        CHANNELS 3 Zrotation Xrotation Yrotation
        JOINT LeftToeBase
        {
          OFFSET 0 -8.72867 10.7106
          CHANNELS 3 Zrotation Xrotation Yrotation
          End Site
          {
            OFFSET 0 0 0
          }
        }
      }
    }
  }
  JOINT RightUpLeg
  {
    OFFSET -8.2078 -6.75166 -1.59956
    CHANNELS 3 Zrotation Xrotation Yrotation
    JOINT RightLeg
    {
      OFFSET 0 -44.3705 0.286156
      CHANNELS 3 Zrotation Xrotation Yrotation
      JOINT RightFoot
      {
        OFFSET 0 -44.4277 -2.98379
        CHANNELS 3 Zrotation Xrotation Yrotation
        JOINT RightToeBase
        {
          OFFSET 0 -8.72867 10.7106
          CHANNELS 3 Zrotation Xrotation Yrotation
          End Site
          {
            OFFSET 0 0 0
          }
        }
      }
    }
  }
}
MOTION
Frames:	17
Frame Time:	0.0333333
-1.06218 88.2488 0.621502 0.0522775 -5.4532 -46.3231 -1.95704 9.24296 7.55272 -0.916152 2.17162 1.02474 -0.894673 2.18722 1.01704 4.419 1.12137 13.174 -3.91066 7.47951 20.6962 -8.61707 0.572557 3.67365 -67.9227 -32.7083 -45.2099 -0.000213005 4.29748e-06 -106.358 -15.7588 4.04096 -6.87555 -5.23542 1.81436 13.2489 64.7892 12.3416 53.0667 8.86016e-05 2.10142e-05 105.988 8.39649 -5.59459 18.5714 18.4134 -27.9211 17.8669 8.07761 58.2064 -13.1879 -14.4915 -21.577 -13.9736 -9.51923e-07 -1.59402 4.9019e-06 -28.3981 -17.7177 -21.5917 -14.3759 57.9434 2.41623 22.3176 -24.8542 3.83742 8.48726e-07 -0.0130064 1.69277e-10 
1.85628 88.6155 0.507395 0.529803 -5.75097 -46.0517 -1.37201 8.80009 7.35612 -0.588477 1.83674 0.83687 -0.572375 1.85378 0.83455 3.89285 1.35364 13.3397 -3.66425 9.54542 20.6069 -8.13594 0.345741 4.11323 -66.6406 -33.2464 -43.6495 -0.000258627 4.79478e-06 -108.314 -16.7796 3.56364 -6.4973 -4.58938 2.45697 14.2741 62.9389 10.3952 54.7784 -1.47238e-05 -4.00513e-06 105.217 7.68018 -7.0486 16.632 20.6537 -27.5464 19.2486 6.43924 57.8269 -14.7644 -20.4026 -21.6543 -17.957 5.28637e-06 0.369049 7.32178e-06 -30.7245 -18.6608 -23.2714 -14.0206 56.5119 3.42216 21.544 -22.2581 3.0525 -1.19909e-06 -0.000500027 2.21817e-05 
4.71199 89.5692 -0.192383 0.690169 -5.42726 -46.8141 -1.67087 8.14087 7.07588 -0.667834 1.37108 0.666462 -0.651959 1.39519 0.644997 4.04959 1.55537 13.2992 -3.17154 10.4185 20.5555 -6.85318 0.273339 3.86392 -66.6858 -35.2275 -43.5885 -0.000225869 1.63321e-05 -110.903 -17.4395 3.05189 -4.90826 -3.5494 3.4077 14.8863 61.3764 8.43038 58.1378 3.1695e-05 -1.03156e-05 103.023 6.72475 -8.37446 15.1105 22.603 -25.0882 19.8044 7.94106 54.6308 -15.1953 -20.4143 -21.564 -17.577 2.46116e-06 0.854361 1.81771e-07 -31.0372 -20.096 -23.7412 -13.4466 53.7178 3.4174 20.3748 -18.8415 1.98443 3.02408e-06 -0.242505 -1.01193e-05 
7.55962 90.681 -1.35086 0.688077 -4.81837 -48.2826 -2.74094 7.50515 6.89386 -1.14006 0.934654 0.618812 -1.12157 0.966397 0.569078 4.93865 1.7001 12.9343 -2.81962 9.56952 20.259 -5.21363 0.375043 2.94401 -68.215 -37.9612 -45.5129 -0.000214878 -6.06055e-06 -113.402 -17.1923 2.54446 -2.76906 -2.68139 4.02051 14.2944 61.1964 7.07141 62.2001 -3.05176e-05 -5.79884e-15 100.291 6.08957 -9.56574 14.7255 23.775 -20.9361 19.5343 11.1522 49.1025 -14.5332 -16.0449 -19.8119 -12.553 -5.75664e-06 2.23569 2.26729e-06 -29.6372 -22.0818 -22.7554 -13.733 50.2076 2.92555 19.5782 -14.8946 0.899688 -1.13013e-06 -0.228571 2.134e-05 
10.5082 91.3794 -2.7511 0.5182 -4.20875 -49.9239 -4.02725 6.91737 6.90083 -1.78725 0.524482 0.696557 -1.76694 0.561385 0.626547 6.15055 1.90962 12.3652 -2.71814 7.73766 19.6954 -3.78293 0.614048 1.59493 -70.5497 -40.3907 -49.2674 -0.000228882 -2.22089e-12 -115.164 -16.3644 2.15675 -0.856626 -2.12934 4.13503 12.6021 62.357 6.24207 66.1492 0.000121789 4.13742e-06 97.7919 6.01548 -10.6519 15.2702 24.901 -15.5961 18.7448 13.0905 42.1657 -13.2772 -10.8285 -14.7677 -7.21958 -1.39833e-05 1.5091 -2.52768e-06 -27.8243 -24.4029 -21.1453 -14.2498 47.2519 3.83406 18.6649 -11.5683 -1.50563 -7.2303e-08 0.0625069 -1.4088e-06 
13.523 91.2648 -4.16338 0.126804 -3.67558 -51.3956 -5.07779 6.31767 7.05395 -2.34432 0.0980679 0.862193 -2.32408 0.138399 0.78025 6.9708 2.16243 11.9495 -2.38543 6.06019 19.1858 -2.88212 0.900258 0.247172 -72.7289 -41.9194 -53.7268 -0.000256402 1.31886e-05 -115.605 -15.523 1.87684 0.410026 -2.12002 3.8184 10.8958 64.1097 5.43693 69.348 0.000137404 -1.50964e-06 95.6779 6.07879 -11.084 15.8712 27.0696 -9.66119 17.7689 11.9743 35.3493 -11.5221 -8.08918 -8.77682 -5.56339 -1.17391e-06 -4.81296 -9.30053e-07 -26.9607 -27.0403 -19.9351 -13.9678 46.1724 3.83588 17.8928 -8.74893 -2.57572 3.8217e-08 0.213928 -2.6942e-05 
16.5305 90.3015 -5.37798 -0.438947 -3.24676 -52.7416 -5.83429 5.65421 7.2376 -2.713 -0.377532 1.04413 -2.69382 -0.333804 0.953549 7.04988 2.30616 11.9364 -1.57729 5.18437 19.1735 -2.36804 1.03921 -0.479566 -73.9374 -42.1992 -56.9734 -0.000196958 6.39898e-06 -114.794 -14.5609 1.93249 0.877313 -2.84868 3.20545 10.4006 65.8826 4.29033 71.056 3.04038e-05 3.226e-06 94.0412 5.87051 -10.5513 15.7741 28.806 -3.65556 17.253 11.015 28.2492 -10.9323 -8.71574 -4.88536 -6.61549 -1.85275 -12.8008 -0.375378 -26.9042 -30.1338 -19.5325 -14.1187 46.8279 3.54741 17.5471 -6.37979 -1.98747 -1.71332e-06 0.37692 2.80095e-06 
19.5917 88.6533 -6.21093 -1.01582 -2.95523 -54.0351 -6.45384 5.02906 7.34386 -3.01571 -0.836491 1.17152 -2.99518 -0.789286 1.0741 6.81582 2.19387 12.1699 -0.930817 4.98079 19.6616 -2.02928 0.91841 -0.278592 -74.2776 -41.222 -58.0942 -0.000227625 6.065e-06 -113.42 -13.6694 2.31821 0.603132 -3.71663 2.69644 11.1707 67.1453 3.10621 71.1891 0.000290047 -4.87993e-06 93.0554 5.59917 -9.6773 15.202 29.9554 0.687261 16.9403 10.67 24.6091 -9.05998 -12.8288 -9.94695 -8.72268 -0.758021 -9.02744 -0.113042 -27.7674 -33.5463 -19.9644 -14.6385 48.5264 3.90415 17.4515 -4.39186 -0.884883 -6.61533e-06 0.357917 6.18535e-06 
22.7757 86.8634 -6.55142 -1.40981 -2.95821 -55.0891 -7.18345 4.73375 7.40264 -3.44762 -1.06871 1.24485 -3.42111 -1.01772 1.14152 7.00842 1.81115 12.2436 -1.16346 4.86324 20.0835 -1.9419 0.674032 0.475927 -74.5142 -39.2951 -57.7617 -0.000241914 1.14436e-05 -112.023 -13.9178 2.63916 -0.0721223 -3.62367 2.83844 11.6651 67.3854 2.81386 70.3224 0.000442303 9.29099e-06 92.4927 5.72827 -9.30808 15.5759 30.1554 1.61808 16.5783 10.8324 26.1515 -7.69633 -19.4051 -18.6593 -11.1765 3.28837e-06 -0.90922 -9.88734e-06 -29.4403 -36.4951 -20.9116 -15.1029 49.723 5.95252 17.4428 -2.60435 -1.30613 0.119279 0.321807 -0.000799666 
26.0825 85.5039 -6.43785 -1.60786 -3.20622 -55.655 -8.04162 5.05864 7.52294 -4.04777 -0.84438 1.33231 -4.01292 -0.787584 1.22174 7.74872 1.20781 12.038 -1.86063 4.50308 19.9563 -2.37376 0.521857 1.20007 -75.0383 -37.0607 -57.0633 -0.000199341 -5.37137e-06 -110.611 -15.7285 2.7034 -0.674903 -2.69572 3.31134 10.3864 66.868 4.37154 68.5005 1.51884e-05 4.40006e-06 91.8361 6.27353 -9.25045 17.9251 29.8434 -1.79856 16.1063 11.611 33.1952 -9.69443 -28.9177 -21.2872 -13.7496 6.68718e-06 -0.114042 -1.42639e-07 -31.3821 -38.5092 -21.7605 -15.1471 49.7464 6.74247 16.8576 -0.611988 -1.82333 6.36255e-06 1.36052 2.22555e-06 
29.2348 84.9548 -6.12546 -1.7696 -3.28904 -55.9246 -8.83509 5.8486 7.80732 -4.58573 -0.251461 1.52252 -4.54599 -0.185909 1.39975 8.42112 0.572548 11.8108 -2.0654 4.05582 19.4258 -3.38374 0.512976 1.72195 -75.3463 -35.1936 -56.3987 -0.000274658 -1.87628e-12 -108.846 -17.8951 2.62892 -0.844322 -2.04283 3.3488 7.96934 66.2604 7.60888 65.424 -9.15025e-05 -8.12194e-06 90.7093 6.64672 -8.87293 21.2776 29.1811 -5.02567 15.5614 12.4165 38.5012 -11.3945 -32.0622 -22.8735 -14.0374 1.75564e-07 -1.2098 -2.43116e-06 -32.3772 -40.3198 -21.9717 -15.1004 49.7587 5.16464 12.9026 -0.296014 -2.09346 8.13112e-07 1.99823 2.32209e-05 
32.1185 85.32 -5.57425 -2.29531 -2.54193 -56.5631 -9.06199 6.51501 8.27783 -4.79421 0.282765 1.84978 -4.75682 0.357141 1.71273 8.44572 0.349495 11.8005 -1.72756 3.86738 19.1714 -4.41424 0.469177 2.32519 -74.9932 -34.0203 -55.7327 -0.000226975 1.30738e-05 -106.595 -19.1978 2.4346 -0.532688 -1.8233 3.28678 6.78755 65.8505 10.5308 62.13 -2.61169e-05 -3.36709e-06 88.3988 6.32202 -8.52278 23.4094 28.9453 -7.72917 15.7332 13.1458 42.1929 -13.2794 -32.2963 -23.895 -13.1764 -4.24815e-06 -1.59176 -7.43288e-06 -31.1617 -41.0854 -21.3538 -14.4463 48.0038 2.87454 7.80405 -0.0896604 -2.71951 3.83358e-06 1.14476 2.11073e-05 
34.5987 86.5026 -4.85961 -3.14138 -1.03005 -57.9671 -8.8477 6.75842 8.80603 -4.71209 0.515084 2.22107 -4.68079 0.597176 2.07302 7.7858 0.747467 12.0753 -1.5195 4.07352 19.7883 -4.72414 0.267903 3.06523 -74.3832 -33.873 -55.2184 -0.000197871 3.84658e-06 -104.601 -19.7992 1.9132 0.156858 -1.35587 3.90739 8.52623 65.5287 11.0252 60.1678 -0.000105093 -7.57062e-06 85.1867 5.42399 -8.94373 22.7896 29.2826 -8.77212 16.8664 13.387 43.2565 -14.2569 -32.0966 -23.5303 -12.0544 4.48995e-06 -1.59372 -1.68303e-05 -27.7722 -40.8221 -20.4793 -13.6246 45.1171 2.11757 2.59119 -0.256856 -3.82947 4.58878e-07 0.106448 3.54246e-05 
36.753 88.212 -4.17405 -3.96867 0.698653 -59.6598 -8.44597 6.86968 9.20156 -4.46498 0.636584 2.47748 -4.43816 0.725464 2.32114 6.76156 1.29739 12.5737 -1.73008 4.38907 21.0767 -4.35099 0.147705 3.28001 -74.2792 -35.3226 -55.3667 -0.000242721 1.13107e-05 -104.305 -20.158 0.949601 0.751832 -0.941913 4.91569 12.0277 65.135 9.32825 60.1925 -1.23705e-06 -3.89028e-06 82.6423 4.31071 -9.84809 20.123 29.6244 -8.5467 18.1877 13.1397 42.1465 -14.1701 -31.1408 -22.5204 -10.4749 -5.81053e-06 -1.59403 -1.45649e-05 -23.4039 -39.7716 -19.7508 -13.1672 42.766 3.57439 -2.38487 -0.341718 -3.54692 1.61817e-06 0.813247 1.68815e-06 
38.7822 90.1172 -3.52562 -4.68302 2.23557 -60.5904 -7.78377 7.1945 9.28633 -4.0335 0.892181 2.48887 -4.01008 0.98294 2.32745 5.69802 1.50903 13.1229 -1.98759 4.47702 22.2777 -3.95715 0.425896 2.26601 -75.0831 -38.3861 -56.5596 -0.000244748 -4.26248e-06 -106.221 -20.0193 -0.223799 0.79683 -1.72482 4.91358 14.9157 65.178 7.35449 61.1809 4.82404e-06 -7.4165e-06 82.4488 3.33804 -10.2741 17.5458 29.6013 -8.14709 18.8141 12.6935 39.9516 -13.3851 -29.3837 -21.2126 -8.74607 -3.29087e-06 -1.59404 1.43764e-05 -20.0461 -38.1842 -19.5993 -13.2864 42.6798 8.81176 -1.39805 1.55279 -3.35246 8.00935e-08 -0.93526 1.15094e-05 
40.7021 91.8545 -2.89647 -5.37557 3.39323 -60.2577 -6.826 7.67963 8.95285 -3.40308 1.23427 2.1931 -3.383 1.31659 2.03801 4.85798 1.55879 13.5224 -2.03681 4.34488 22.97 -3.80838 1.09153 0.165913 -76.822 -42.1849 -58.7355 -0.000242448 1.00231e-05 -109.174 -19.1017 -1.1639 0.359933 -3.61706 3.5654 16.3122 65.8242 5.85456 62.2407 -8.42347e-05 3.08253e-06 84.6497 2.95107 -9.86657 16.1526 29.3371 -8.23578 18.6659 12.3173 37.7436 -12.5435 -27.8163 -19.5476 -7.63588 -1.13915e-05 -1.59404 -7.46866e-06 -18.3817 -36.6057 -20.4181 -14.2731 46.4052 10.6986 1.53159 1.17766 -0.314927 7.88245e-06 0.66164 2.2256e-05 
42.4427 93.2044 -2.2672 -6.05637 4.05843 -58.999 -5.80659 8.10027 8.30214 -2.73147 1.50173 1.6783 -2.71231 1.56847 1.54407 4.45689 1.83567 13.6656 -1.93247 4.17338 23.2298 -3.61047 1.79958 -2.07838 -78.8587 -45.2766 -61.1815 -0.000243073 5.60658e-06 -111.557 -17.7935 -1.40069 -0.345137 -5.38428 2.06193 16.4946 66.357 4.45997 63.812 -0.000196007 3.77775e-06 87.5723 3.22169 -8.97105 15.9248 28.9036 -8.8014 18.0592 12.125 36.1829 -11.8198 -26.5165 -17.9528 -7.3545 1.34893e-06 -1.59404 -9.52276e-06 -17.3683 -34.9481 -21.3629 -16.2015 52.2152 12.0855 3.30757 -0.0348888 1.10104 1.00834e-05 1.14048 3.48988e-06 
